<?xml version="1.0" standalone="no"?><!DOCTYPE svg PUBLIC "-//W3C//DTD SVG 1.1//EN" "http://www.w3.org/Graphics/SVG/1.1/DTD/svg11.dtd"><svg class="icon" viewBox="0 0 1024 1024" version="1.1" xmlns="http://www.w3.org/2000/svg" xmlns:xlink="http://www.w3.org/1999/xlink" width="200" height="200"><defs><style type="text/css"></style></defs><path d="M983.552 711.168c-25.6 60.928-62.464 115.712-109.568 162.816s-101.888 83.968-162.816 109.568c-62.976 26.624-130.048 40.448-199.168 40.448s-136.192-13.312-199.168-40.448c-60.928-25.6-115.712-62.464-162.816-109.568s-83.968-101.888-109.568-162.816C13.312 648.192 0 581.12 0 512s13.312-136.192 40.448-199.168c25.6-60.928 62.464-115.712 109.568-162.816S251.904 66.048 312.832 40.448C375.808 13.312 442.88 0 512 0s136.192 13.312 199.168 40.448c60.928 25.6 115.712 62.464 162.816 109.568s83.968 101.888 109.568 162.816c26.624 62.976 40.448 130.048 40.448 199.168s-13.312 136.192-40.448 199.168zM677.888 119.808c-52.224-22.016-108.032-33.28-165.888-33.28S398.848 97.28 346.112 119.808c-50.688 21.504-96.256 52.224-135.168 91.136-38.912 38.912-69.632 84.48-91.136 135.168-22.528 52.736-33.792 108.544-33.792 165.888s11.264 113.152 33.28 165.888c21.504 50.688 52.224 96.256 91.136 135.168 38.912 38.912 84.48 69.632 135.168 91.136 52.224 22.016 108.032 33.28 165.888 33.28s113.152-11.264 165.888-33.28c50.688-21.504 96.256-52.224 135.168-91.136 38.912-38.912 69.632-84.48 91.136-135.168 22.016-52.224 33.28-108.032 33.28-165.888s-11.264-113.152-33.28-165.888c-21.504-50.688-52.224-96.256-91.136-135.168-38.4-38.912-83.968-69.632-134.656-91.136z m39.424 435.2h-162.304v162.304c0 23.552-19.456 43.008-43.008 43.008s-43.008-19.456-43.008-43.008v-162.304H306.688c-23.552 0-43.008-19.456-43.008-43.008s19.456-43.008 43.008-43.008h162.304V306.688c0-23.552 19.456-43.008 43.008-43.008 23.552 0 43.008 19.456 43.008 43.008v162.304h162.304c23.552 0 43.008 19.456 43.008 43.008 0.512 23.552-18.944 43.008-43.008 43.008z" fill="#0C0C0C"></path></svg>