<?xml version="1.0" standalone="no"?><!DOCTYPE svg PUBLIC "-//W3C//DTD SVG 1.1//EN" "http://www.w3.org/Graphics/SVG/1.1/DTD/svg11.dtd"><svg class="icon" viewBox="0 0 1024 1024" version="1.1" xmlns="http://www.w3.org/2000/svg" xmlns:xlink="http://www.w3.org/1999/xlink" width="200" height="200"><defs><style type="text/css"></style></defs><path d="M621.696 590.933333c105.130667 0 190.506667 84.181333 195.157333 189.354667l0.213334 9.045333V853.333333a49.066667 49.066667 0 0 1-97.834667 5.333334L718.933333 853.333333v-64c0-53.290667-40.192-96.512-90.581333-100.053333l-6.656-0.213333H402.346667c-51.242667 0-93.568 41.002667-97.024 93.397333l-0.213334 6.869333V853.333333a49.066667 49.066667 0 0 1-97.834666 5.333334L206.933333 853.333333v-64c0-106.325333 82.474667-193.450667 186.410667-198.186666l8.96-0.213334h219.392zM510.464 153.344l10.538667 0.256a210.858667 210.858667 0 1 1-21.76 0l11.221333-0.256z m0 102.4l-8.874667 0.341333a108.458667 108.458667 0 1 0 16.64-0.085333l-7.765333-0.256z" ></path></svg>