<?xml version="1.0" standalone="no"?><!DOCTYPE svg PUBLIC "-//W3C//DTD SVG 1.1//EN" "http://www.w3.org/Graphics/SVG/1.1/DTD/svg11.dtd"><svg class="icon" viewBox="0 0 1024 1024" version="1.1" xmlns="http://www.w3.org/2000/svg" xmlns:xlink="http://www.w3.org/1999/xlink" width="200" height="200"><defs><style type="text/css"></style></defs><path d="M934.272 853.312H373.888a42.24 42.24 0 0 1-32.96-14.464L56.768 545.792c-18.816-19.328-18.816-49.92 0-67.584l284.16-293.056a42.24 42.24 0 0 1 32.96-14.464h560.384c26.688 0 47.04 20.928 47.04 48.256v586.112c0 27.328-20.352 48.256-47.04 48.256z m-541.568-96.64h494.464V267.328H392.704L155.712 512l236.992 244.736z" fill="#172B4D" ></path><path d="M738.048 677.824a44.608 44.608 0 0 1-32.96-14.464L477.44 429.888c-18.816-19.328-18.816-49.92 0-67.648 18.88-19.328 48.64-19.328 65.92 0l227.648 233.472c18.816 19.328 18.816 49.92 0 67.648a47.296 47.296 0 0 1-32.96 14.464z" fill="#172B4D" ></path><path d="M510.464 677.824a44.672 44.672 0 0 1-33.024-14.464c-18.816-19.328-18.816-49.92 0-67.648l227.648-233.472c18.816-19.328 48.64-19.328 65.92 0s18.816 49.92 0 67.648L543.36 663.36a44.672 44.672 0 0 1-32.96 14.464z" fill="#172B4D" ></path></svg>